<?xml version="1.0" encoding="utf-8"?>
<!-- Generator: Adobe Illustrator 16.0.4, SVG Export Plug-In . SVG Version: 6.00 Build 0)  -->
<!DOCTYPE svg PUBLIC "-//W3C//DTD SVG 1.1//EN" "http://www.w3.org/Graphics/SVG/1.1/DTD/svg11.dtd">
<svg version="1.1" id="Layer_1" xmlns="http://www.w3.org/2000/svg" xmlns:xlink="http://www.w3.org/1999/xlink" x="0px" y="0px"
	 width="500px" height="300px" viewBox="0 0 500 300" enable-background="new 0 0 500 300" xml:space="preserve">
<rect width="500" height="300"/>
<g id="nav6hW_1_" display="none">
	
		<image display="inline" overflow="visible" enable-background="new    " width="594" height="419" id="nav6hW_2_" xlink:href="CD3DFE22DE42A283.jpeg"  transform="matrix(1 0 0 1 -503 -135)">
	</image>
</g>
<circle fill="#F3E205" cx="251" cy="149.396" r="5"/>
<path fill="none" stroke="#155B33" stroke-width="25" stroke-miterlimit="10" d="M320.75,149.396c0,38.528-31.223,69.75-69.75,69.75
	c-38.526,0-69.75-31.223-69.75-69.75c0-38.526,31.224-69.75,69.75-69.75C289.527,79.646,320.75,110.871,320.75,149.396z"/>
<circle fill="none" stroke="#FFFFFF" stroke-width="0.5" stroke-miterlimit="10" cx="251" cy="149.396" r="21.25"/>
<path fill="none" stroke="#FFFFFF" stroke-width="0.5" stroke-miterlimit="10" d="M300.75,149.396c0,27.48-22.27,49.75-49.75,49.75
	c-27.479,0-49.75-22.271-49.75-49.75c0-27.479,22.271-49.75,49.75-49.75C278.48,99.646,300.75,121.917,300.75,149.396z"/>
<path fill="none" stroke="#FFFFFF" stroke-width="0.5" stroke-miterlimit="10" d="M320.75,149.396
	c0,38.528-31.223,69.75-69.75,69.75c-38.526,0-69.75-31.223-69.75-69.75c0-38.526,31.224-69.75,69.75-69.75
	C289.527,79.646,320.75,110.871,320.75,149.396z"/>
<path fill="none" stroke="#FFFFFF" stroke-width="0.5" stroke-miterlimit="10" d="M340.75,149.396
	c0,49.577-40.174,89.75-89.75,89.75c-49.573,0-89.75-40.174-89.75-89.75c0-49.573,40.177-89.75,89.75-89.75
	C300.576,59.646,340.75,99.824,340.75,149.396z"/>
<path fill="none" stroke="#FFFFFF" stroke-width="0.5" stroke-miterlimit="10" d="M391.75,149.396
	c0,77.749-63.002,140.75-140.75,140.75c-77.742,0-140.75-63.002-140.75-140.75c0-77.742,63.008-140.75,140.75-140.75
	C328.748,8.646,391.75,71.654,391.75,149.396z"/>
<line fill="none" stroke="#FFFFFF" stroke-width="0.5" stroke-miterlimit="10" x1="302" y1="102.396" x2="474.5" y2="102.396"/>
<line fill="none" stroke="#FFFFFF" stroke-width="0.5" stroke-miterlimit="10" x1="290.5" y1="68.896" x2="474.5" y2="68.896"/>
<line fill="none" stroke="#FFFFFF" stroke-width="0.5" stroke-miterlimit="10" x1="299.5" y1="137.396" x2="473" y2="137.396"/>
<text transform="matrix(1 0 0 1 413.166 66.3965)" fill="#FFFFFF" font-family="'Helvetica-Light'" font-size="12">TOO COLD</text>
<text transform="matrix(1 0 0 1 407.5 99.8965)" fill="#FFFFFF" font-family="'Helvetica-Light'" font-size="12">JUST RIGHT</text>
<text transform="matrix(1 0 0 1 420.5 134.8965)" fill="#FFFFFF" font-family="'Helvetica-Light'" font-size="12">TOO HOT</text>
<g id="yu72Lh_1_">
	<g>
		<g>
			<g>
				<path fill="#379A47" d="M301.582,93.577c0.014,0,0.029,0,0.043,0c0.318,0.083,0.641,0.021,0.961,0.031
					c0.049,0.005,0.1,0.012,0.148,0.016c2.123,0.162,3.981,0.947,5.539,2.4c1.659,1.549,2.575,3.474,2.778,5.733
					c0.056,0.622,0.033,1.246-0.062,1.865c-0.092-0.007-0.129-0.084-0.183-0.14c-0.69-0.729-1.131-1.604-1.414-2.554
					c-0.282-0.949-0.608-1.867-1.325-2.591c-0.156-0.158-0.261-0.365-0.191-0.589c0.102-0.33-0.014-0.585-0.207-0.835
					c-0.135-0.176-0.26-0.358-0.307-0.585c-0.062-0.302-0.179-0.361-0.478-0.26c-0.055,0.018-0.112,0.029-0.162,0.058
					c-0.323,0.191-0.573,0.1-0.805-0.174c-0.166-0.196-0.349-0.388-0.603-0.475c-0.321-0.11-0.586-0.301-0.812-0.547
					c-0.11-0.121-0.241-0.19-0.397-0.235c-0.877-0.255-1.773-0.233-2.672-0.185c-0.586,0.031-1.146,0.171-1.67,0.437
					c-0.429,0.216-0.435,0.247-0.095,0.586c0.152,0.152,0.351,0.277,0.427,0.48c0.102,0.277,0.297,0.362,0.562,0.371
					c0.129,0.004,0.262,0.01,0.387,0.04c0.365,0.085,0.715,0.215,0.996,0.473c0.194,0.177,0.192,0.309,0.035,0.522
					c-0.021,0.025-0.039,0.075-0.027,0.096c0.099,0.175-0.01,0.279-0.118,0.39c-0.054,0.053-0.086,0.137-0.035,0.195
					c0.063,0.074,0.137,0.004,0.182-0.043c0.375-0.398,0.859-0.483,1.375-0.498c0.387-0.012,0.68,0.142,0.9,0.449
					c0.069,0.099,0.119,0.213,0.192,0.31c0.131,0.174,0.104,0.329-0.03,0.483c-0.119,0.133-0.248,0.258-0.322,0.427
					c-0.269,0.612-0.642,1.153-1.137,1.603c-0.107,0.098-0.197,0.21-0.261,0.341c-0.183,0.387-0.174,0.761,0.086,1.117
					c0.05,0.065,0.117,0.144,0.054,0.233c-0.066,0.09-0.166,0.073-0.259,0.051c-0.135-0.032-0.252-0.097-0.36-0.182
					c-0.258-0.199-0.539-0.362-0.861-0.422c-0.74-0.138-1.09,0.1-1.008,0.941c0.004,0.036,0.01,0.072,0.018,0.106
					c0.064,0.261,0.162,0.294,0.369,0.125c0.094-0.078,0.18-0.167,0.281-0.233c0.178-0.115,0.363-0.013,0.379,0.199
					c0.002,0.043,0.002,0.086,0.002,0.129c0,0.643,0.432,1.281,1.229,1.255c0.646-0.021,1.293-0.014,1.939-0.005
					c0.426,0.005,0.842,0.077,1.221,0.293c0.533,0.305,1.109,0.448,1.722,0.483c0.321,0.019,0.637,0.098,0.909,0.289
					c0.142,0.099,0.209,0.205,0.121,0.396c-0.082,0.179-0.121,0.382-0.155,0.579c-0.105,0.595-0.341,1.091-0.935,1.35
					c-0.131,0.057-0.248,0.15-0.326,0.274c-0.151,0.24-0.373,0.392-0.618,0.519c-0.146,0.076-0.287,0.16-0.433,0.239
					c-0.254,0.139-0.461,0.339-0.682,0.524c-0.186,0.156-0.383,0.325-0.652,0.256c-0.189-0.048-0.35-0.001-0.48,0.115
					c-0.293,0.261-0.625,0.455-0.969,0.635c-0.121,0.063-0.227,0.149-0.322,0.249c-0.215,0.222-0.438,0.266-0.715,0.141
					c-0.207-0.092-0.242-0.238-0.096-0.407c0.123-0.141,0.248-0.279,0.383-0.409c0.162-0.158,0.314-0.342,0.584-0.306
					c0.072,0.009,0.104-0.067,0.142-0.119c0.29-0.401,0.272-0.979-0.041-1.361c-0.189-0.229-0.433-0.399-0.654-0.593
					c-0.328-0.288-0.526-0.63-0.485-1.092c0.016-0.201,0.082-0.376,0.172-0.547c0.123-0.239,0.104-0.437-0.09-0.643
					c-0.291-0.312-0.601-0.597-0.943-0.847c-0.488-0.355-1.021-0.637-1.545-0.935c-0.361-0.206-0.719-0.428-0.943-0.796
					c-0.062-0.102-0.139-0.175-0.236-0.238c-0.305-0.196-0.594-0.41-0.727-0.769c-0.215-0.583-0.262-1.186-0.184-1.801
					c0.078-0.626,0.254-1.235,0.34-1.859c0.084-0.611-0.025-1.158-0.701-1.46c-0.053-0.023-0.102-0.053-0.152-0.082
					c-0.336-0.192-0.336-0.201-0.051-0.464c0.131-0.121,0.271-0.234,0.34-0.41c0.049-0.123,0.02-0.235-0.062-0.319
					c-0.092-0.096-0.163,0.021-0.241,0.057c-0.076,0.036-0.146,0.093-0.228,0.12c-0.121,0.042-0.25,0.076-0.356-0.042
					c1.274-0.989,2.711-1.592,4.307-1.816C301.113,93.655,301.357,93.672,301.582,93.577z"/>
				<path fill="#379A47" d="M293.135,101.81c0.088-0.089,0.055-0.208,0.072-0.314c0.088-0.495,0.102-1.005,0.312-1.474
					c0.155-0.074,0.264-0.022,0.33,0.192c0.067,0.218,0.077,0.457,0.166,0.665c0.403,0.95,0.391,1.925,0.217,2.915
					c-0.031,0.175-0.109,0.325-0.219,0.461c-0.166,0.205-0.334,0.409-0.5,0.613c-0.16-0.506-0.255-1.026-0.312-1.553
					c-0.013-0.1,0.021-0.215-0.068-0.298c0-0.028,0-0.057,0-0.085c0.058-0.331,0.058-0.661,0-0.992
					C293.135,101.896,293.135,101.853,293.135,101.81z"/>
				<path fill="#36C6F3" d="M293.514,104.868c0.166-0.204,0.334-0.408,0.5-0.613c0.109-0.136,0.188-0.286,0.219-0.461
					c0.175-0.99,0.188-1.965-0.217-2.915c-0.088-0.208-0.098-0.447-0.166-0.665c-0.065-0.215-0.174-0.266-0.33-0.192
					c-0.014-0.187,0.074-0.348,0.136-0.514c0.567-1.582,1.512-2.897,2.825-3.948c0.027-0.022,0.062-0.036,0.09-0.055
					c0.107,0.117,0.236,0.084,0.357,0.042c0.08-0.027,0.15-0.084,0.227-0.12c0.078-0.036,0.15-0.153,0.242-0.057
					c0.082,0.084,0.111,0.196,0.062,0.319c-0.068,0.176-0.209,0.289-0.34,0.41c-0.285,0.264-0.285,0.272,0.051,0.464
					c0.051,0.029,0.1,0.059,0.152,0.082c0.676,0.302,0.785,0.849,0.701,1.46c-0.086,0.625-0.262,1.233-0.34,1.859
					c-0.078,0.615-0.031,1.217,0.184,1.801c0.133,0.358,0.422,0.573,0.727,0.769c0.098,0.063,0.174,0.136,0.236,0.238
					c0.225,0.369,0.582,0.59,0.943,0.796c0.522,0.298,1.057,0.579,1.545,0.935c0.344,0.25,0.652,0.536,0.942,0.847
					c0.193,0.206,0.214,0.404,0.091,0.643c-0.091,0.171-0.156,0.346-0.172,0.547c-0.041,0.462,0.157,0.804,0.485,1.092
					c0.224,0.194,0.465,0.364,0.653,0.593c0.314,0.381,0.332,0.96,0.041,1.361c-0.037,0.052-0.067,0.128-0.141,0.119
					c-0.27-0.036-0.422,0.148-0.584,0.306c-0.135,0.13-0.26,0.268-0.383,0.409c-0.146,0.169-0.111,0.314,0.096,0.407
					c0.275,0.125,0.5,0.081,0.715-0.141c0.097-0.099,0.201-0.185,0.322-0.249c0.344-0.18,0.676-0.374,0.969-0.635
					c0.131-0.117,0.291-0.163,0.48-0.115c0.27,0.069,0.467-0.1,0.652-0.256c0.221-0.185,0.428-0.385,0.682-0.524
					c0.145-0.08,0.287-0.164,0.432-0.239c0.246-0.127,0.468-0.279,0.619-0.519c0.078-0.124,0.195-0.217,0.326-0.274
					c0.594-0.259,0.828-0.755,0.934-1.35c0.035-0.197,0.074-0.399,0.156-0.579c0.088-0.191,0.021-0.296-0.121-0.396
					c-0.272-0.191-0.588-0.271-0.91-0.289c-0.61-0.036-1.188-0.179-1.721-0.483c-0.379-0.216-0.795-0.288-1.221-0.293
					c-0.646-0.009-1.293-0.016-1.939,0.005c-0.797,0.026-1.229-0.612-1.229-1.255c0-0.043,0-0.086-0.002-0.129
					c-0.016-0.211-0.201-0.313-0.379-0.199c-0.103,0.066-0.188,0.155-0.281,0.233c-0.207,0.169-0.305,0.137-0.369-0.125
					c-0.008-0.035-0.014-0.07-0.018-0.106c-0.082-0.842,0.268-1.08,1.008-0.941c0.322,0.061,0.604,0.224,0.861,0.422
					c0.108,0.085,0.227,0.149,0.36,0.182c0.093,0.022,0.19,0.039,0.259-0.051c0.063-0.089-0.005-0.167-0.054-0.233
					c-0.26-0.356-0.269-0.729-0.086-1.117c0.062-0.131,0.151-0.244,0.26-0.341c0.496-0.45,0.869-0.991,1.138-1.603
					c0.073-0.169,0.203-0.294,0.321-0.427c0.138-0.155,0.162-0.309,0.031-0.483c-0.074-0.097-0.123-0.211-0.192-0.31
					c-0.222-0.307-0.515-0.461-0.9-0.449c-0.516,0.015-1,0.1-1.375,0.498c-0.045,0.047-0.117,0.117-0.182,0.043
					c-0.052-0.059-0.019-0.142,0.034-0.195c0.109-0.11,0.218-0.214,0.119-0.39c-0.012-0.021,0.008-0.07,0.026-0.096
					c0.158-0.213,0.16-0.345-0.034-0.522c-0.281-0.257-0.632-0.388-0.996-0.473c-0.125-0.029-0.258-0.036-0.388-0.04
					c-0.266-0.009-0.461-0.093-0.562-0.371c-0.075-0.204-0.272-0.329-0.426-0.479c-0.34-0.34-0.334-0.371,0.094-0.586
					c0.525-0.266,1.084-0.406,1.671-0.437c0.897-0.048,1.795-0.07,2.672,0.185c0.155,0.045,0.287,0.114,0.397,0.235
					c0.228,0.246,0.489,0.438,0.812,0.547c0.254,0.087,0.437,0.279,0.603,0.475c0.229,0.273,0.479,0.365,0.805,0.174
					c0.049-0.028,0.107-0.04,0.162-0.058c0.299-0.101,0.414-0.042,0.478,0.26c0.047,0.227,0.172,0.409,0.307,0.585
					c0.193,0.25,0.309,0.505,0.207,0.835c-0.068,0.225,0.035,0.432,0.19,0.589c0.718,0.725,1.044,1.642,1.326,2.591
					c0.283,0.95,0.724,1.825,1.414,2.554c0.054,0.056,0.09,0.133,0.183,0.14c-0.191,1.539-0.787,2.916-1.729,4.137
					c-1.146,1.484-2.625,2.512-4.414,3.079c-1.284,0.407-2.598,0.514-3.934,0.336c-0.628-0.083-1.24-0.218-1.83-0.448
					c0.022-0.117-0.048-0.189-0.123-0.257c-0.099-0.085-0.199-0.165-0.293-0.252c-0.062-0.059-0.14-0.138-0.082-0.223
					c0.185-0.285,0.026-0.479-0.172-0.646c-0.339-0.283-0.56-0.646-0.765-1.025c-0.084-0.157-0.164-0.32-0.274-0.458
					c-0.609-0.758-1.14-0.796-1.81-0.262c-0.051,0.041-0.094,0.088-0.145,0.128c-0.131,0.106-0.182,0.235-0.119,0.398
					c-0.277-0.234-0.463-0.542-0.666-0.835c-0.457-0.666-0.801-1.391-1.059-2.155C293.549,105.051,293.535,104.958,293.514,104.868z
					"/>
				<path fill="#379A47" d="M295.303,108.129c-0.062-0.164-0.012-0.292,0.119-0.398c0.051-0.041,0.094-0.087,0.145-0.128
					c0.67-0.535,1.199-0.497,1.81,0.262c0.11,0.138,0.19,0.301,0.274,0.458c0.205,0.378,0.427,0.742,0.765,1.025
					c0.198,0.168,0.354,0.361,0.172,0.646c-0.058,0.085,0.021,0.165,0.082,0.223c0.095,0.088,0.194,0.167,0.293,0.252
					c0.076,0.068,0.146,0.14,0.123,0.257c-1.199-0.428-2.267-1.066-3.179-1.959C295.697,108.562,295.449,108.395,295.303,108.129z"
					/>
			</g>
		</g>
	</g>
</g>
</svg>
